<svg width="143" height="149" viewBox="0 0 143 149" fill="none" xmlns="http://www.w3.org/2000/svg">
<path d="M70.9166 56.75H85.0833V35.5H106.333V21.3334H85.0833V0.083374H70.9166V21.3334H49.6666V35.5H70.9166V56.75ZM42.5833 120.5C34.7916 120.5 28.4875 126.875 28.4875 134.667C28.4875 142.458 34.7916 148.833 42.5833 148.833C50.375 148.833 56.75 142.458 56.75 134.667C56.75 126.875 50.375 120.5 42.5833 120.5ZM113.417 120.5C105.625 120.5 99.3208 126.875 99.3208 134.667C99.3208 142.458 105.625 148.833 113.417 148.833C121.208 148.833 127.583 142.458 127.583 134.667C127.583 126.875 121.208 120.5 113.417 120.5ZM50.375 85.0834H103.146C108.458 85.0834 113.133 82.1792 115.542 77.7875L142.883 28.1334L130.558 21.3334L103.146 70.9167H53.4208L23.2458 7.16671H0.083313V21.3334H14.25L39.75 75.0959L30.1875 92.3792C25.0166 101.871 31.8166 113.417 42.5833 113.417H127.583V99.25H42.5833L50.375 85.0834Z" fill="#323232"/>
</svg>
