<svg width="90" height="90" viewBox="0 0 90 90" fill="none" xmlns="http://www.w3.org/2000/svg">
<path d="M85.05 61.9C78.9 61.9 72.95 60.9 67.4 59.1C66.5305 58.8053 65.5956 58.7615 64.7024 58.9738C63.8092 59.186 62.9939 59.6457 62.35 60.3L54.5 70.15C40.35 63.4 27.1 50.65 20.05 36L29.8 27.7C31.15 26.3 31.55 24.35 31 22.6C29.15 17.05 28.2 11.1 28.2 4.95C28.2 2.25 25.95 0 23.25 0H5.95C3.25 0 0 1.2 0 4.95C0 51.4 38.65 90 85.05 90C88.6 90 90 86.85 90 84.1V66.85C90 64.15 87.75 61.9 85.05 61.9Z" fill="black"/>
</svg>
