<svg width="82" height="66" viewBox="0 0 82 66" fill="none" xmlns="http://www.w3.org/2000/svg">
<path d="M25.7964 66C56.7322 66 73.6575 40.6052 73.6575 18.5896C73.6575 17.8757 73.6414 17.1459 73.6094 16.432C76.9019 14.0734 79.7433 11.1519 82 7.80474C78.9336 9.15617 75.6779 10.0388 72.3442 10.4224C75.8544 8.33817 78.4827 5.06389 79.7418 1.20657C76.4396 3.14517 72.8282 4.51269 69.0626 5.25051C66.5254 2.57997 63.1707 0.811766 59.5173 0.219259C55.8638 -0.373248 52.1151 0.242948 48.8506 1.97258C45.5862 3.70221 42.9878 6.44894 41.4573 9.7881C39.9268 13.1273 39.5494 16.8729 40.3834 20.4458C33.6968 20.1134 27.1555 18.3928 21.1833 15.3955C15.2111 12.3982 9.94145 8.19104 5.71598 3.04689C3.56837 6.71475 2.91119 11.055 3.87802 15.1856C4.84485 19.3162 7.36313 22.9271 10.9211 25.2846C8.24998 25.2006 5.63742 24.4882 3.29922 23.2063V23.4125C3.29683 27.2617 4.64017 30.9929 7.10089 33.9718C9.56162 36.9508 12.9879 38.9937 16.7972 39.7533C14.3229 40.4239 11.7259 40.5216 9.20738 40.0388C10.2823 43.3491 12.3737 46.2444 15.1897 48.3206C18.0057 50.3968 21.4058 51.5503 24.9155 51.6201C18.9571 56.2565 11.5968 58.7712 4.01992 58.7593C2.67623 58.7573 1.33386 58.6757 0 58.515C7.69726 63.4067 16.6512 66.0047 25.7964 66Z" fill="black"/>
</svg>
