<svg width="89" height="89" viewBox="0 0 89 89" fill="none" xmlns="http://www.w3.org/2000/svg">
<path d="M82.4 21.065C69.2 0.899968 42.25 -5.09503 21.35 7.43997C0.999998 19.975 -5.6 47.225 7.6 67.39L8.7 69.025L4.3 85.375L20.8 81.015L22.45 82.105C29.6 85.92 37.3 88.1 45 88.1C53.25 88.1 61.5 85.92 68.65 81.56C89 68.48 95.05 41.775 82.4 21.065ZM70.85 63.03C68.65 66.3 65.9 68.48 62.05 69.025C59.85 69.025 57.1 70.115 46.1 65.755C36.75 61.395 29.05 54.31 23.55 46.135C20.25 42.32 18.6 37.415 18.05 32.51C18.05 28.15 19.7 24.335 22.45 21.61C23.55 20.52 24.65 19.975 25.75 19.975H28.5C29.6 19.975 30.7 19.975 31.25 22.155C32.35 24.88 35.1 31.42 35.1 31.965C35.65 32.51 35.65 33.6 35.1 34.145C35.65 35.235 35.1 36.325 34.55 36.87C34 37.415 33.45 38.505 32.9 39.05C31.8 39.595 31.25 40.685 31.8 41.775C34 45.045 36.75 48.315 39.5 51.04C42.8 53.765 46.1 55.945 49.95 57.58C51.05 58.125 52.15 58.125 52.7 57.035C53.25 55.945 56 53.22 57.1 52.13C58.2 51.04 58.75 51.04 59.85 51.585L68.65 55.945C69.75 56.49 70.85 57.035 71.4 57.58C71.95 59.215 71.95 61.395 70.85 63.03Z" fill="black"/>
</svg>
