<svg width="734" height="27" viewBox="0 0 734 27" fill="none" xmlns="http://www.w3.org/2000/svg">
<path d="M23.288 24H21.308L20.318 4.365L12.167 24H10.979L2.894 4.497L1.904 24H0.782L1.937 0.899998H3.521L12.035 21.36L20.549 0.899998H22.133L23.288 24ZM79.4223 24H78.1023L63.4833 3.969V24H62.3613V0.899998H63.6813L78.3003 20.931V0.899998H79.4223V24ZM134.211 24H119.691V0.899998H133.518V2.022H121.671V11.889H131.307V13.011H121.671V22.878H134.211V24ZM187.374 17.466C187.374 19.446 186.615 21.107 185.097 22.449C183.601 23.791 181.808 24.462 179.718 24.462C177.012 24.462 174.471 23.659 172.095 22.053V21.096C174.317 22.592 176.858 23.34 179.718 23.34C181.28 23.34 182.622 22.823 183.744 21.789C184.888 20.733 185.46 19.457 185.46 17.961C185.46 15.651 183.425 13.891 179.355 12.681C174.691 11.295 172.359 9.238 172.359 6.51C172.359 4.75 173.085 3.298 174.537 2.154C176.011 1.01 177.738 0.437998 179.718 0.437998C182.16 0.437998 184.393 1.241 186.417 2.847V3.804C184.481 2.308 182.248 1.56 179.718 1.56C178.244 1.56 176.968 1.978 175.89 2.814C174.812 3.65 174.273 4.717 174.273 6.015C174.273 6.521 174.394 6.994 174.636 7.434C174.9 7.852 175.186 8.193 175.494 8.457C175.802 8.699 176.275 8.963 176.913 9.249C177.551 9.535 178.046 9.733 178.398 9.843C178.75 9.953 179.311 10.129 180.081 10.371C182.171 10.987 183.909 11.9 185.295 13.11C186.681 14.298 187.374 15.75 187.374 17.466ZM241.107 3.903C242.647 6.059 243.417 8.908 243.417 12.45C243.417 15.992 242.647 18.852 241.107 21.03C239.589 23.186 237.334 24.264 234.342 24.264C231.35 24.264 229.084 23.186 227.544 21.03C226.026 18.852 225.267 15.992 225.267 12.45C225.267 8.908 226.026 6.059 227.544 3.903C229.084 1.725 231.35 0.636 234.342 0.636C237.334 0.636 239.589 1.725 241.107 3.903ZM234.342 23.142C238.764 23.142 240.975 19.578 240.975 12.45C240.975 5.322 238.764 1.758 234.342 1.758C229.92 1.758 227.709 5.322 227.709 12.45C227.709 19.578 229.92 23.142 234.342 23.142ZM303.814 24H301.834L300.844 4.365L292.693 24H291.505L283.42 4.497L282.43 24H281.308L282.463 0.899998H284.047L292.561 21.36L301.075 0.899998H302.659L303.814 24ZM357.638 24H355.559L352.886 15.915H344.108L341.402 24H340.214L347.936 0.899998H350.015L357.638 24ZM352.523 14.793L348.53 2.682L344.471 14.793H352.523ZM396.047 21.921C396.289 22.163 396.41 22.449 396.41 22.779C396.41 23.109 396.289 23.395 396.047 23.637C395.805 23.879 395.519 24 395.189 24C394.859 24 394.573 23.879 394.331 23.637C394.089 23.395 393.968 23.109 393.968 22.779C393.968 22.449 394.089 22.163 394.331 21.921C394.573 21.679 394.859 21.558 395.189 21.558C395.519 21.558 395.805 21.679 396.047 21.921ZM449.927 24H435.407V0.899998H449.234V2.022H437.387V11.889H447.023V13.011H437.387V22.878H449.927V24ZM489.823 21.921C490.065 22.163 490.186 22.449 490.186 22.779C490.186 23.109 490.065 23.395 489.823 23.637C489.581 23.879 489.295 24 488.965 24C488.635 24 488.349 23.879 488.107 23.637C487.865 23.395 487.744 23.109 487.744 22.779C487.744 22.449 487.865 22.163 488.107 21.921C488.349 21.679 488.635 21.558 488.965 21.558C489.295 21.558 489.581 21.679 489.823 21.921ZM531.164 24H529.184V0.899998H531.164V24ZM594.894 0.899998L588.558 24H587.238L581.958 4.662L576.678 24H575.358L569.055 0.899998H571.101L576.48 20.535L581.826 0.899998H582.981L588.36 20.535L593.706 0.899998H594.894ZM647.416 17.532C647.416 19.49 646.657 21.14 645.139 22.482C643.643 23.802 641.861 24.462 639.793 24.462C637.725 24.462 635.932 23.802 634.414 22.482C632.918 21.14 632.17 19.49 632.17 17.532V0.899998H634.15V17.07C634.15 18.786 634.733 20.26 635.899 21.492C637.087 22.724 638.528 23.34 640.222 23.34C641.916 23.34 643.346 22.724 644.512 21.492C645.7 20.26 646.294 18.786 646.294 17.07V0.899998H647.416V17.532ZM691.241 22.119C691.241 23.329 690.977 24.374 690.449 25.254C689.943 26.134 689.228 26.574 688.304 26.574C686.962 26.574 685.763 26.145 684.707 25.287V24.528C685.037 24.77 685.466 24.979 685.994 25.155C686.544 25.353 687.028 25.452 687.446 25.452C688.084 25.452 688.546 25.122 688.832 24.462C689.118 23.824 689.261 23.043 689.261 22.119V0.899998H691.241V22.119ZM733.477 24H731.497V0.899998H733.477V24Z" fill="#1C1C1C"/>
</svg>
